# xmcd CD database file
#
# Track frame offsets:
#	150
#	19445
#	47450
#	76838
#	110194
#	134841
#	153660
#	178233
#	203679
#	221295
#	248095
#	270442
#	299456
#
# Disc length: 4312 seconds
#
# Revision: 0
# Processed by: cddbd v1.5.2PL0 Copyright (c) Steve Scherf et al.
# Submitted via: CDex 1.70beta2
#
DISCID=c110d60d
DTITLE=Various Artist - Salsa de Oro
DYEAR=1900
DGENRE=Salsa
TTITLE0=Angel Canales - Lejos de ti
TTITLE1=Latin Brothers - Patrona de reclusos
TTITLE2=Larry Harlow - La cartera
TTITLE3=Ruben Blades - Pedro navaja
TTITLE4=Hector Lavoe - El dia de mi suerte
TTITLE5=El gran combo - Azuquita pal cafe
TTITLE6=Alex Bueno - Jardin Prohibido
TTITLE7=Niche - Entrega
TTITLE8=Oscar de Leon - Sigue tu camino
TTITLE9=Sonora Poncena - Fuego en el 23
TTITLE10=Eddie Santiago - Todo empezo
TTITLE11=Frankie Ruiz - La rueda
TTITLE12=Andy Montanez - Casi te envidio
EXTD=
EXTT0=
EXTT1=
EXTT2=
EXTT3=
EXTT4=
EXTT5=
EXTT6=
EXTT7=
EXTT8=
EXTT9=
EXTT10=
EXTT11=
EXTT12=
PLAYORDER=
